<?xml version="1.0" standalone="no"?>
<!DOCTYPE svg PUBLIC "-//W3C//DTD SVG 20010904//EN"
 "http://www.w3.org/TR/2001/REC-SVG-20010904/DTD/svg10.dtd">
<svg version="1.0" xmlns="http://www.w3.org/2000/svg"
 width="875.000000pt" height="500.000000pt" viewBox="0 0 875.000000 500.000000"
 preserveAspectRatio="xMidYMid meet">

<g transform="translate(0.000000,500.000000) scale(0.100000,-0.100000)"
fill="#000000" stroke="none">
<path d="M3739 3952 c-9 -207 53 -393 173 -519 50 -51 83 -75 156 -110 l93
-46 -29 -31 c-106 -111 -182 -314 -182 -485 0 -556 584 -915 1083 -665 171 86
305 240 367 424 12 36 24 72 27 80 2 8 15 -16 27 -55 28 -87 84 -196 133 -255
161 -197 427 -304 672 -270 514 70 801 610 572 1075 -22 44 -60 103 -85 131
l-46 52 85 41 c145 69 247 184 300 339 26 79 54 275 42 306 -6 15 -11 14 -54
-8 -126 -63 -381 -122 -653 -151 -551 -58 -606 -66 -733 -110 -82 -29 -168
-77 -218 -122 l-37 -33 -48 41 c-27 22 -85 58 -129 79 -135 65 -273 92 -670
130 -369 35 -620 87 -781 160 l-64 29 -1 -27z m1054 -717 c175 -37 316 -166
368 -337 28 -90 23 -224 -10 -310 -50 -130 -169 -245 -298 -289 -90 -31 -231
-32 -314 -1 -244 88 -378 339 -314 587 45 170 193 312 368 350 81 18 118 18
200 0z m1469 1 c152 -33 273 -128 344 -272 l39 -78 0 -126 0 -127 -42 -85
c-71 -142 -196 -238 -351 -269 -226 -44 -475 104 -547 326 -28 85 -27 239 2
317 58 156 198 278 357 313 80 18 117 18 198 1z"/>
<path d="M5351 2244 c-61 -74 -69 -89 -59 -103 7 -9 41 -48 76 -88 l64 -72 74
85 c41 46 74 87 74 91 0 9 -141 173 -150 173 -4 0 -39 -39 -79 -86z"/>
<path d="M6696 2115 c-196 -160 -211 -180 -166 -225 41 -41 65 -29 248 120
160 131 172 143 172 174 0 19 -8 40 -18 49 -39 35 -64 22 -236 -118z"/>
<path d="M6818 1989 c-71 -55 -88 -76 -88 -110 0 -31 31 -59 66 -59 22 0 112
63 147 102 23 27 21 63 -5 88 -32 30 -60 25 -120 -21z"/>
<path d="M6953 1863 c-12 -2 -36 -20 -54 -40 -28 -33 -31 -41 -27 -88 4 -50
10 -59 226 -327 122 -152 233 -285 248 -297 18 -14 41 -21 72 -21 38 0 49 5
78 35 41 44 53 95 32 139 -9 17 -115 156 -237 308 -245 305 -249 308 -338 291z"/>
<path d="M1920 1793 c-35 -13 -60 -47 -60 -83 0 -47 23 -78 64 -86 63 -11 113
39 102 101 -9 46 -66 82 -106 68z"/>
<path d="M944 1735 c11 -45 156 -685 156 -690 0 -3 31 -5 68 -5 l69 0 63 230
c35 126 65 228 67 226 2 -2 32 -104 67 -227 l63 -224 69 0 69 0 77 340 c42
187 77 348 78 358 0 14 -10 17 -65 17 -59 0 -65 -2 -70 -22 -3 -13 -25 -113
-50 -222 -25 -110 -47 -201 -48 -203 -2 -1 -32 99 -67 223 l-64 225 -60 -3
-59 -3 -61 -217 c-33 -120 -63 -218 -66 -218 -3 0 -28 99 -55 220 l-49 220
-69 0 c-69 0 -69 0 -63 -25z"/>
<path d="M2217 1576 c-52 -19 -85 -52 -98 -97 -25 -83 19 -158 125 -211 77
-38 96 -55 96 -85 0 -16 -8 -27 -26 -34 -32 -12 -57 -5 -107 29 l-38 26 -39
-45 -38 -44 31 -33 c32 -33 105 -62 156 -62 50 0 104 22 143 59 33 30 41 45
45 83 3 26 3 58 -1 72 -10 42 -65 95 -130 128 -99 49 -119 78 -72 99 21 10 32
7 72 -15 l48 -27 40 40 c40 40 40 40 20 62 -49 55 -158 81 -227 55z"/>
<path d="M2760 1581 c-135 -45 -204 -139 -204 -281 0 -61 5 -84 26 -125 53
-101 135 -149 258 -149 93 -1 153 21 204 73 l38 39 -53 28 -54 27 -37 -22
c-84 -48 -197 -30 -232 38 -33 63 -38 61 200 61 l217 0 -7 57 c-18 154 -115
249 -264 258 -37 3 -78 1 -92 -4z m150 -126 c28 -15 70 -60 70 -76 0 -5 -65
-9 -145 -9 l-146 0 16 30 c33 63 135 91 205 55z"/>
<path d="M1880 1305 l0 -265 65 0 65 0 0 265 0 265 -65 0 -65 0 0 -265z"/>
</g>
</svg>
